<?xml version="1.0" encoding="utf-8"?>
<svg version="1.1" xmlns:xlink="http://www.w3.org/1999/xlink" width="50px" height="50px" xmlns="http://www.w3.org/2000/svg">
  <g transform="matrix(1 0 0 1 -20 -110 )">
    <path d="M 45 110  C 59 110  70 121  70 135  C 70 149  59 160  45 160  C 31 160  20 149  20 135  C 20 121  31 110  45 110  Z " fill-rule="nonzero" fill="#ffffff" stroke="none" />
    <path d="M 45 110.5  C 58.72 110.5  69.5 121.28  69.5 135  C 69.5 148.72  58.72 159.5  45 159.5  C 31.28 159.5  20.5 148.72  20.5 135  C 20.5 121.28  31.28 110.5  45 110.5  Z " stroke-width="1" stroke="#797979" fill="none" />
  </g>
</svg>