<?xml version="1.0" encoding="utf-8"?>
<svg version="1.1" xmlns:xlink="http://www.w3.org/1999/xlink" width="24px" height="12px" xmlns="http://www.w3.org/2000/svg">
  <g transform="matrix(1 0 0 1 -336 -17 )">
    <path d="M 0 3  C 0 1.61929  1.11929 0.5  2.5 0.5  L 21.5 0.5  C 22.8807 0.5  24 1.61929  24 3  L 24 9.5  C 24 10.8807  22.8807 12  21.5 12  L 2.5 12  C 1.11929 12  0 10.8807  0 9.5  L 0 3  Z M 21.5 1.5  L 2.5 1.5  C 1.67157 1.5  1 2.17157  1 3  L 1 9.5  C 1 10.3284  1.67157 11  2.5 11  L 21.5 11  C 22.3284 11  23 10.3284  23 9.5  L 23 3  C 23 2.17157  22.3284 1.5  21.5 1.5  Z " fill-rule="nonzero" fill="#000000" stroke="none" transform="matrix(1 0 0 1 336 17 )" />
  </g>
</svg>