<?xml version="1.0" encoding="utf-8"?>
<svg version="1.1" xmlns:xlink="http://www.w3.org/1999/xlink" width="15px" height="10px" xmlns="http://www.w3.org/2000/svg">
  <g transform="matrix(1 0 0 1 -316 -18 )">
    <path d="M 14.1459000008731 2.66228  L 13.9828000010399 2.52294  C 12.0717000029935 0.890570000000001  9.65740000546164 0  7.13272000804257 0  C 4.60056001063115 0  2.17953001310613 0.895890000000001  0.266142015062149 2.53708  L 0.103645015228267 2.67646  C -0.0277637846373966 2.78918  -0.0353067846296856 2.98954  0.0872572152450195 3.11176  L 1.21420001409297 4.23557  C 1.32359001398114 4.34466  1.49850001380233 4.3521  1.6168000136814 4.2527  L 1.75641001353868 4.13541  C 3.26327001199824 2.86943  5.15517001006419 2.18035  7.13272000804257 2.18035  C 9.10354000602784 2.18035  10.9894000041 2.86472  12.4940000025618 4.12283  L 12.6336000024191 4.23952  C 12.7519000022982 4.33847  12.9264000021198 4.33084  13.0356000020082 4.22195  L 14.162700000856 3.09797  C 14.2855000007304 2.97558  14.2777000007384 2.77488  14.1459000008731 2.66228  Z M 2.7525900125203 4.98871  C 3.99984001124526 4.00267  5.5342100096767 3.46979  7.13272000804257 3.46979  C 8.7235500064163 3.46979  10.2510000048548 3.99754  11.4953000035828 4.97486  L 11.6711000034031 5.11298  C 11.8113000032597 5.2231  11.8236000032472 5.43059  11.6974000033762 5.55643  L 10.5667000045321 6.68407  C 10.462100004639 6.78836  10.2966000048082 6.80034  10.1780000049294 6.7122  L 10.0401000050704 6.60976  C 9.19975000592949 5.98518  8.18639000696543 5.65015  7.13272000804257 5.65015  C 6.07256000912636 5.65015  5.05328001016835 5.98934  4.21010001103031 6.62109  L 4.07212001117137 6.72448  C 3.95351001129262 6.81334  3.78742001146241 6.80164  3.68252001156965 6.69703  L 2.5521600127252 5.56981  C 2.42623001285393 5.44423  2.4381900128417 5.23727  2.57774001269905 5.12694  L 2.7525900125203 4.98871  Z M 5.3029600099131 7.44065  C 5.85550000934825 7.11212  6.48478000870495 6.93959  7.13272000804257 6.93959  C 7.77222000738883 6.93959  8.3936000067536 7.10763  8.94112000619388 7.42805  L 9.16295000596711 7.55788  C 9.33114000579517 7.65631  9.36071000576494 7.88666  9.2228200059059 8.0242  L 7.32874000784219 9.913  C 7.21240000796112 10.029  7.02377000815395 10.029  6.90743000827288 9.913  L 5.02552001019673 8.0363  C 4.88824001033706 7.8994  4.91685001030782 7.67022  5.08361001013734 7.57107  L 5.3029600099131 7.44065  Z " fill-rule="nonzero" fill="#000000" stroke="none" transform="matrix(1 0 0 1 316 18 )" />
  </g>
</svg>