<?xml version="1.0" encoding="utf-8"?>
<svg version="1.1" xmlns:xlink="http://www.w3.org/1999/xlink" width="12px" height="8px" xmlns="http://www.w3.org/2000/svg">
  <g transform="matrix(1 0 0 1 -295 -20 )">
    <path d="M 12 1  C 12 0.44772  11.5523 0  11 0  L 10 0  C 9.4477 0  9 0.44772  9 1  L 9 7  C 9 7.5523  9.4477 8  10 8  L 11 8  C 11.5523 8  12 7.5523  12 7  L 12 1  Z M 4.5 3  C 4.5 2.44772  4.94772 2  5.5 2  L 6.5 2  C 7.05228 2  7.5 2.44772  7.5 3  L 7.5 7  C 7.5 7.5523  7.05228 8  6.5 8  L 5.5 8  C 4.94772 8  4.5 7.5523  4.5 7  L 4.5 3  Z M 0 4.5  C 0 3.94772  0.44772 3.5  1 3.5  L 2 3.5  C 2.55228 3.5  3 3.94772  3 4.5  L 3 7  C 3 7.5523  2.55228 8  2 8  L 1 8  C 0.44772 8  0 7.5523  0 7  L 0 4.5  Z " fill-rule="nonzero" fill="#000000" stroke="none" transform="matrix(1 0 0 1 295 20 )" />
  </g>
</svg>